/* XPM */
static const char *Enemy2[] = {
/* columns rows colors chars-per-pixel */
"36 36 5 1 ",
"  c #916644",
". c #12A53A",
"X c #12A33C",
"o c #31BE4C",
"O c #84D191",
/* pixels */
"                                    ",
"                                    ",
"                                    ",
"                                    ",
"                                    ",
"                                    ",
"                                    ",
"                                    ",
"                                    ",
"                                    ",
"               ......               ",
"              .oooooo.              ",
"             .ooooooOo.             ",
"            .ooooooooOo.            ",
"            .ooooooooOo.            ",
"           .oooooooooooo.           ",
"           .oooooooooooo.           ",
"           XooOooooooooo.           ",
"            .oOoooooooo.            ",
"             ..Oooooo..             ",
"               ......               ",
"                                    ",
"                                    ",
"                                    ",
"                                    ",
"                                    ",
"                                    ",
"                                    ",
"                                    ",
"                                    ",
"                                    ",
"                                    ",
"                                    ",
"                                    ",
"                                    ",
"                                    "
};
