/* XPM */
static const char *Enemy3[] = {
/* columns rows colors chars-per-pixel */
"36 36 5 1 ",
"  c #916644",
". c #11A63A",
"X c #11AA3C",
"o c #31BE4C",
"O c #84D191",
/* pixels */
"                                    ",
"                                    ",
"                                    ",
"                                    ",
"                                    ",
"                .X..                ",
"              ..oooo..              ",
"             .ooooooOo.             ",
"             .oooooooO.             ",
"            .ooooooooOo.            ",
"            .oooooooooo.            ",
"            .oooooooooo.            ",
"            .oOoooooooo.            ",
"             .Oooooooo.             ",
"             .oOoooooo.             ",
"              ..oooo..              ",
"                ....                ",
"                                    ",
"                                    ",
"                                    ",
"                                    ",
"                                    ",
"                                    ",
"                                    ",
"                                    ",
"                                    ",
"                                    ",
"                                    ",
"                                    ",
"                                    ",
"                                    ",
"                                    ",
"                                    ",
"                                    ",
"                                    ",
"                                    "
};
