/* XPM */
static const char *Wall_vines[] = {
/* columns rows colors chars-per-pixel */
"128 128 5 1 ",
"  c #363436",
". c #38473D",
"X c #464646",
"o c #4E6154",
"O c gray38",
/* pixels */
"            oooo                                                    ....        oooo                                            ",
"            oooo                                                    ....        oooo                                            ",
"            oooo                                                    ....        oooo                                            ",
"            oooo                                                    ....        oooo                                            ",
"ooooXXXXXXXX....XXXXXXXX    XXXXXXXXXXXXXXXXXXXXXXXXXXXXXXXX....ooooXXXXoooo....XXXXooooXXXXXXXXXXXX    XXXXXXXXXXXXXXXXXXXXXXXX",
"ooooXXXXXXXX....XXXXXXXX    XXXXXXXXXXXXXXXXXXXXXXXXXXXXXXXX....ooooXXXXoooo....XXXXooooXXXXXXXXXXXX    XXXXXXXXXXXXXXXXXXXXXXXX",
"ooooXXXXXXXX....XXXXXXXX    XXXXXXXXXXXXXXXXXXXXXXXXXXXXXXXX....ooooXXXXoooo....XXXXooooXXXXXXXXXXXX    XXXXXXXXXXXXXXXXXXXXXXXX",
"ooooXXXXXXXX....XXXXXXXX    XXXXXXXXXXXXXXXXXXXXXXXXXXXXXXXX....ooooXXXXoooo....XXXXooooXXXXXXXXXXXX    XXXXXXXXXXXXXXXXXXXXXXXX",
"....OOOO....OOOOOOOOOOOO    OOOOOOOOOOOOOOOOOOOOOOOOOOOOooooOOOOOOOO....OOOOOOOOOOOO....OOOOOOOOOOOO    OOOOOOOOOOOOOOOOOOOOOOOO",
"....OOOO....OOOOOOOOOOOO    OOOOOOOOOOOOOOOOOOOOOOOOOOOOooooOOOOOOOO....OOOOOOOOOOOO....OOOOOOOOOOOO    OOOOOOOOOOOOOOOOOOOOOOOO",
"....OOOO....OOOOOOOOOOOO    OOOOOOOOOOOOOOOOOOOOOOOOOOOOooooOOOOOOOO....OOOOOOOOOOOO....OOOOOOOOOOOO    OOOOOOOOOOOOOOOOOOOOOOOO",
"....OOOO....OOOOOOOOOOOO    OOOOOOOOOOOOOOOOOOOOOOOOOOOOooooOOOOOOOO....OOOOOOOOOOOO....OOOOOOOOOOOO    OOOOOOOOOOOOOOOOOOOOOOOO",
"OOOOooooOOOOOOOOOOOOOOOO    OOOOOOOOOOOOOOOOOOOOOOOOOOOO....OOOOOOOOOOOOooooOOOO....OOOOooooOOOOOOOO    OOOOOOOOOOOOOOOOOOOOoooo",
"OOOOooooOOOOOOOOOOOOOOOO    OOOOOOOOOOOOOOOOOOOOOOOOOOOO....OOOOOOOOOOOOooooOOOO....OOOOooooOOOOOOOO    OOOOOOOOOOOOOOOOOOOOoooo",
"OOOOooooOOOOOOOOOOOOOOOO    OOOOOOOOOOOOOOOOOOOOOOOOOOOO....OOOOOOOOOOOOooooOOOO....OOOOooooOOOOOOOO    OOOOOOOOOOOOOOOOOOOOoooo",
"OOOOooooOOOOOOOOOOOOOOOO    OOOOOOOOOOOOOOOOOOOOOOOOOOOO....OOOOOOOOOOOOooooOOOO....OOOOooooOOOOOOOO    OOOOOOOOOOOOOOOOOOOOoooo",
"OOOO....OOOOOOOOOOOOOOOO    OOOOOOOOOOOOOOOOOOOOOOOOOOOOOOOOOOOOOOOOOOOO....OOOOOOOOOOOO....OOOOOOOO    OOOOOOOOOOOOOOOOOOOO....",
"OOOO....OOOOOOOOOOOOOOOO    OOOOOOOOOOOOOOOOOOOOOOOOOOOOOOOOOOOOOOOOOOOO....OOOOOOOOOOOO....OOOOOOOO    OOOOOOOOOOOOOOOOOOOO....",
"OOOO....OOOOOOOOOOOOOOOO    OOOOOOOOOOOOOOOOOOOOOOOOOOOOOOOOOOOOOOOOOOOO....OOOOOOOOOOOO....OOOOOOOO    OOOOOOOOOOOOOOOOOOOO....",
"OOOO....OOOOOOOOOOOOOOOO    OOOOOOOOOOOOOOOOOOOOOOOOOOOOOOOOOOOOOOOOOOOO....OOOOOOOOOOOO....OOOOOOOO    OOOOOOOOOOOOOOOOOOOO....",
"ooooOOOOOOOOOOOOOOOOOOOO    OOOOOOOOOOOOOOOOOOOOOOOOOOOOOOOOOOOOOOOO....OOOOOOOOOOOOOOOOOOOOooooOOOO    OOOOOOOOOOOOOOOOooooOOOO",
"ooooOOOOOOOOOOOOOOOOOOOO    OOOOOOOOOOOOOOOOOOOOOOOOOOOOOOOOOOOOOOOO....OOOOOOOOOOOOOOOOOOOOooooOOOO    OOOOOOOOOOOOOOOOooooOOOO",
"ooooOOOOOOOOOOOOOOOOOOOO    OOOOOOOOOOOOOOOOOOOOOOOOOOOOOOOOOOOOOOOO....OOOOOOOOOOOOOOOOOOOOooooOOOO    OOOOOOOOOOOOOOOOooooOOOO",
"ooooOOOOOOOOOOOOOOOOOOOO    OOOOOOOOOOOOOOOOOOOOOOOOOOOOOOOOOOOOOOOO....OOOOOOOOOOOOOOOOOOOOooooOOOO    OOOOOOOOOOOOOOOOooooOOOO",
"OOOO....OOOOOOOOOOOOOOOO    OOOOOOOOOOOOOOOOOOOOOOOOOOOOOOOOOOOOOOOOOOOOOOOOOOOOOOOOOOOOOOOO....OOOO    OOOOOOOOOOOOOOOO....OOOO",
"OOOO....OOOOOOOOOOOOOOOO    OOOOOOOOOOOOOOOOOOOOOOOOOOOOOOOOOOOOOOOOOOOOOOOOOOOOOOOOOOOOOOOO....OOOO    OOOOOOOOOOOOOOOO....OOOO",
"OOOO....OOOOOOOOOOOOOOOO    OOOOOOOOOOOOOOOOOOOOOOOOOOOOOOOOOOOOOOOOOOOOOOOOOOOOOOOOOOOOOOOO....OOOO    OOOOOOOOOOOOOOOO....OOOO",
"OOOO....OOOOOOOOOOOOOOOO    OOOOOOOOOOOOOOOOOOOOOOOOOOOOOOOOOOOOOOOOOOOOOOOOOOOOOOOOOOOOOOOO....OOOO    OOOOOOOOOOOOOOOO....OOOO",
"OOOOOOOOooooOOOOOOOOOOOO    OOOOOOOOOOOOOOOOOOOOOOOOOOOOOOOOOOOOOOOOOOOOOOOOOOOOOOOO....ooooOOOOOOOO    OOOOOOOOOOOOooooOOOO....",
"OOOOOOOOooooOOOOOOOOOOOO    OOOOOOOOOOOOOOOOOOOOOOOOOOOOOOOOOOOOOOOOOOOOOOOOOOOOOOOO....ooooOOOOOOOO    OOOOOOOOOOOOooooOOOO....",
"OOOOOOOOooooOOOOOOOOOOOO    OOOOOOOOOOOOOOOOOOOOOOOOOOOOOOOOOOOOOOOOOOOOOOOOOOOOOOOO....ooooOOOOOOOO    OOOOOOOOOOOOooooOOOO....",
"OOOOOOOOooooOOOOOOOOOOOO    OOOOOOOOOOOOOOOOOOOOOOOOOOOOOOOOOOOOOOOOOOOOOOOOOOOOOOOO....ooooOOOOOOOO    OOOOOOOOOOOOooooOOOO....",
"        ....                                                                                                        ....        ",
"        ....                                                                                                        ....        ",
"        ....                                                                                                        ....        ",
"        ....                                                                                                        ....        ",
"XXXXooooXXXXooooXXXXXXXXXXXXXXXXXXXXXXXXXXXXXXXXXXXXXXXXXXXXXXXX    XXXXXXXXXXXXXXXXXXXXXXXXXXXXXXXXXXXXXXXXXXXXooooXXXX....XXXX",
"XXXXooooXXXXooooXXXXXXXXXXXXXXXXXXXXXXXXXXXXXXXXXXXXXXXXXXXXXXXX    XXXXXXXXXXXXXXXXXXXXXXXXXXXXXXXXXXXXXXXXXXXXooooXXXX....XXXX",
"XXXXooooXXXXooooXXXXXXXXXXXXXXXXXXXXXXXXXXXXXXXXXXXXXXXXXXXXXXXX    XXXXXXXXXXXXXXXXXXXXXXXXXXXXXXXXXXXXXXXXXXXXooooXXXX....XXXX",
"XXXXooooXXXXooooXXXXXXXXXXXXXXXXXXXXXXXXXXXXXXXXXXXXXXXXXXXXXXXX    XXXXXXXXXXXXXXXXXXXXXXXXXXXXXXXXXXXXXXXXXXXXooooXXXX....XXXX",
"OOOO....OOOO....OOOOooooOOOOOOOOOOOOOOOOOOOOOOOOOOOOOOOOOOOOOOOO    OOOOOOOOOOOOOOOOOOOOOOOOOOOOOOOOOOOOOOOOOOOO....OOOOOOOO....",
"OOOO....OOOO....OOOOooooOOOOOOOOOOOOOOOOOOOOOOOOOOOOOOOOOOOOOOOO    OOOOOOOOOOOOOOOOOOOOOOOOOOOOOOOOOOOOOOOOOOOO....OOOOOOOO....",
"OOOO....OOOO....OOOOooooOOOOOOOOOOOOOOOOOOOOOOOOOOOOOOOOOOOOOOOO    OOOOOOOOOOOOOOOOOOOOOOOOOOOOOOOOOOOOOOOOOOOO....OOOOOOOO....",
"OOOO....OOOO....OOOOooooOOOOOOOOOOOOOOOOOOOOOOOOOOOOOOOOOOOOOOOO    OOOOOOOOOOOOOOOOOOOOOOOOOOOOOOOOOOOOOOOOOOOO....OOOOOOOO....",
"ooooOOOOOOOOOOOO....OOOO....OOOOOOOOOOOOOOOOOOOOOOOOOOOOOOOOOOOO    OOOOOOOOOOOOOOOOOOOOOOOOOOOOOOOOOOOOOOOOOOOOOOOOooooOOOOOOOO",
"ooooOOOOOOOOOOOO....OOOO....OOOOOOOOOOOOOOOOOOOOOOOOOOOOOOOOOOOO    OOOOOOOOOOOOOOOOOOOOOOOOOOOOOOOOOOOOOOOOOOOOOOOOooooOOOOOOOO",
"ooooOOOOOOOOOOOO....OOOO....OOOOOOOOOOOOOOOOOOOOOOOOOOOOOOOOOOOO    OOOOOOOOOOOOOOOOOOOOOOOOOOOOOOOOOOOOOOOOOOOOOOOOooooOOOOOOOO",
"ooooOOOOOOOOOOOO....OOOO....OOOOOOOOOOOOOOOOOOOOOOOOOOOOOOOOOOOO    OOOOOOOOOOOOOOOOOOOOOOOOOOOOOOOOOOOOOOOOOOOOOOOOooooOOOOOOOO",
"OOOOOOOOOOOOooooOOOOOOOOOOOOOOOOOOOOOOOOOOOOOOOOOOOOOOOOOOOOOOOO    OOOOOOOOOOOOOOOOOOOOOOOOOOOOOOOOOOOOOOOOOOOO....OOOOOOOOOOOO",
"OOOOOOOOOOOOooooOOOOOOOOOOOOOOOOOOOOOOOOOOOOOOOOOOOOOOOOOOOOOOOO    OOOOOOOOOOOOOOOOOOOOOOOOOOOOOOOOOOOOOOOOOOOO....OOOOOOOOOOOO",
"OOOOOOOOOOOOooooOOOOOOOOOOOOOOOOOOOOOOOOOOOOOOOOOOOOOOOOOOOOOOOO    OOOOOOOOOOOOOOOOOOOOOOOOOOOOOOOOOOOOOOOOOOOO....OOOOOOOOOOOO",
"OOOOOOOOOOOOooooOOOOOOOOOOOOOOOOOOOOOOOOOOOOOOOOOOOOOOOOOOOOOOOO    OOOOOOOOOOOOOOOOOOOOOOOOOOOOOOOOOOOOOOOOOOOO....OOOOOOOOOOOO",
"OOOOOOOOOOOO....OOOOOOOOOOOOOOOOOOOOOOOOOOOOOOOOOOOOOOOOOOOOOOOO    OOOOOOOOOOOOOOOOOOOOOOOOOOOOOOOOOOOOOOOOOOOOOOOOOOOOOOOOOOOO",
"OOOOOOOOOOOO....OOOOOOOOOOOOOOOOOOOOOOOOOOOOOOOOOOOOOOOOOOOOOOOO    OOOOOOOOOOOOOOOOOOOOOOOOOOOOOOOOOOOOOOOOOOOOOOOOOOOOOOOOOOOO",
"OOOOOOOOOOOO....OOOOOOOOOOOOOOOOOOOOOOOOOOOOOOOOOOOOOOOOOOOOOOOO    OOOOOOOOOOOOOOOOOOOOOOOOOOOOOOOOOOOOOOOOOOOOOOOOOOOOOOOOOOOO",
"OOOOOOOOOOOO....OOOOOOOOOOOOOOOOOOOOOOOOOOOOOOOOOOOOOOOOOOOOOOOO    OOOOOOOOOOOOOOOOOOOOOOOOOOOOOOOOOOOOOOOOOOOOOOOOOOOOOOOOOOOO",
"OOOOOOOOooooOOOOOOOOOOOOOOOOOOOOOOOOOOOOOOOOOOOOOOOOOOOOOOOOOOOO    OOOOOOOOOOOOOOOOOOOOOOOOOOOOOOOOOOOOOOOOOOOOOOOOOOOOOOOOOOOO",
"OOOOOOOOooooOOOOOOOOOOOOOOOOOOOOOOOOOOOOOOOOOOOOOOOOOOOOOOOOOOOO    OOOOOOOOOOOOOOOOOOOOOOOOOOOOOOOOOOOOOOOOOOOOOOOOOOOOOOOOOOOO",
"OOOOOOOOooooOOOOOOOOOOOOOOOOOOOOOOOOOOOOOOOOOOOOOOOOOOOOOOOOOOOO    OOOOOOOOOOOOOOOOOOOOOOOOOOOOOOOOOOOOOOOOOOOOOOOOOOOOOOOOOOOO",
"OOOOOOOOooooOOOOOOOOOOOOOOOOOOOOOOOOOOOOOOOOOOOOOOOOOOOOOOOOOOOO    OOOOOOOOOOOOOOOOOOOOOOOOOOOOOOOOOOOOOOOOOOOOOOOOOOOOOOOOOOOO",
"OOOOOOOOOOOOOOOOOOOOOOOOOOOOOOOOOOOOOOOOOOOOOOOOOOOOOOOOOOOOOOOO    OOOOOOOOOOOOOOOOOOOOOOOOOOOOOOOOOOOOOOOOOOOOOOOOOOOOOOOOOOOO",
"OOOOOOOOOOOOOOOOOOOOOOOOOOOOOOOOOOOOOOOOOOOOOOOOOOOOOOOOOOOOOOOO    OOOOOOOOOOOOOOOOOOOOOOOOOOOOOOOOOOOOOOOOOOOOOOOOOOOOOOOOOOOO",
"OOOOOOOOOOOOOOOOOOOOOOOOOOOOOOOOOOOOOOOOOOOOOOOOOOOOOOOOOOOOOOOO    OOOOOOOOOOOOOOOOOOOOOOOOOOOOOOOOOOOOOOOOOOOOOOOOOOOOOOOOOOOO",
"OOOOOOOOOOOOOOOOOOOOOOOOOOOOOOOOOOOOOOOOOOOOOOOOOOOOOOOOOOOOOOOO    OOOOOOOOOOOOOOOOOOOOOOOOOOOOOOOOOOOOOOOOOOOOOOOOOOOOOOOOOOOO",
"    oooo        ....                            ....                ....                                                        ",
"    oooo        ....                            ....                ....                                                        ",
"    oooo        ....                            ....                ....                                                        ",
"    oooo        ....                            ....                ....                                                        ",
"....XXXXoooo....XXXXXXXX    XXXXXXXXXXXXXXXXXXXXXXXXoooo....XXXX....XXXXXXXX....XXXXXXXXXXXXXXXXXXXX    XXXXXXXXXXXXXXXXXXXXXXXX",
"....XXXXoooo....XXXXXXXX    XXXXXXXXXXXXXXXXXXXXXXXXoooo....XXXX....XXXXXXXX....XXXXXXXXXXXXXXXXXXXX    XXXXXXXXXXXXXXXXXXXXXXXX",
"....XXXXoooo....XXXXXXXX    XXXXXXXXXXXXXXXXXXXXXXXXoooo....XXXX....XXXXXXXX....XXXXXXXXXXXXXXXXXXXX    XXXXXXXXXXXXXXXXXXXXXXXX",
"....XXXXoooo....XXXXXXXX    XXXXXXXXXXXXXXXXXXXXXXXXoooo....XXXX....XXXXXXXX....XXXXXXXXXXXXXXXXXXXX    XXXXXXXXXXXXXXXXXXXXXXXX",
"OOOO....OOOOOOOOOOOOOOOO    OOOOOOOOOOOOOOOOOOOOOOOOOOOOOOOOooooOOOOoooo....OOOOOOOOOOOOOOOOOOOOOOOO    OOOOOOOOOOOOOOOOOOOOOOOO",
"OOOO....OOOOOOOOOOOOOOOO    OOOOOOOOOOOOOOOOOOOOOOOOOOOOOOOOooooOOOOoooo....OOOOOOOOOOOOOOOOOOOOOOOO    OOOOOOOOOOOOOOOOOOOOOOOO",
"OOOO....OOOOOOOOOOOOOOOO    OOOOOOOOOOOOOOOOOOOOOOOOOOOOOOOOooooOOOOoooo....OOOOOOOOOOOOOOOOOOOOOOOO    OOOOOOOOOOOOOOOOOOOOOOOO",
"OOOO....OOOOOOOOOOOOOOOO    OOOOOOOOOOOOOOOOOOOOOOOOOOOOOOOOooooOOOOoooo....OOOOOOOOOOOOOOOOOOOOOOOO    OOOOOOOOOOOOOOOOOOOOOOOO",
"OOOOooooOOOOOOOOOOOOOOOO    OOOOOOOOOOOOOOOOOOOOOOOOOOOO....OOOO....OOOOOOOOooooOOOOOOOOOOOOOOOOOOOO    OOOOOOOOOOOOOOOOOOOOOOOO",
"OOOOooooOOOOOOOOOOOOOOOO    OOOOOOOOOOOOOOOOOOOOOOOOOOOO....OOOO....OOOOOOOOooooOOOOOOOOOOOOOOOOOOOO    OOOOOOOOOOOOOOOOOOOOOOOO",
"OOOOooooOOOOOOOOOOOOOOOO    OOOOOOOOOOOOOOOOOOOOOOOOOOOO....OOOO....OOOOOOOOooooOOOOOOOOOOOOOOOOOOOO    OOOOOOOOOOOOOOOOOOOOOOOO",
"OOOOooooOOOOOOOOOOOOOOOO    OOOOOOOOOOOOOOOOOOOOOOOOOOOO....OOOO....OOOOOOOOooooOOOOOOOOOOOOOOOOOOOO    OOOOOOOOOOOOOOOOOOOOOOOO",
"....OOOOOOOOOOOOOOOOOOOO    OOOOOOOOOOOOOOOOOOOOoooo....OOOOOOOOOOOO....OOOOOOOOOOOOOOOOOOOOOOOOOOOO    OOOOOOOOOOOOOOOOOOOOOOOO",
"....OOOOOOOOOOOOOOOOOOOO    OOOOOOOOOOOOOOOOOOOOoooo....OOOOOOOOOOOO....OOOOOOOOOOOOOOOOOOOOOOOOOOOO    OOOOOOOOOOOOOOOOOOOOOOOO",
"....OOOOOOOOOOOOOOOOOOOO    OOOOOOOOOOOOOOOOOOOOoooo....OOOOOOOOOOOO....OOOOOOOOOOOOOOOOOOOOOOOOOOOO    OOOOOOOOOOOOOOOOOOOOOOOO",
"....OOOOOOOOOOOOOOOOOOOO    OOOOOOOOOOOOOOOOOOOOoooo....OOOOOOOOOOOO....OOOOOOOOOOOOOOOOOOOOOOOOOOOO    OOOOOOOOOOOOOOOOOOOOOOOO",
"OOOOooooOOOOOOOOOOOOOOOO    OOOOOOOOOOOOOOOOOOOOOOOOOOOOOOOOOOOOOOOOooooOOOOOOOOOOOOOOOOOOOOOOOOOOOO    OOOOOOOOOOOOOOOOOOOOOOOO",
"OOOOooooOOOOOOOOOOOOOOOO    OOOOOOOOOOOOOOOOOOOOOOOOOOOOOOOOOOOOOOOOooooOOOOOOOOOOOOOOOOOOOOOOOOOOOO    OOOOOOOOOOOOOOOOOOOOOOOO",
"OOOOooooOOOOOOOOOOOOOOOO    OOOOOOOOOOOOOOOOOOOOOOOOOOOOOOOOOOOOOOOOooooOOOOOOOOOOOOOOOOOOOOOOOOOOOO    OOOOOOOOOOOOOOOOOOOOOOOO",
"OOOOooooOOOOOOOOOOOOOOOO    OOOOOOOOOOOOOOOOOOOOOOOOOOOOOOOOOOOOOOOOooooOOOOOOOOOOOOOOOOOOOOOOOOOOOO    OOOOOOOOOOOOOOOOOOOOOOOO",
"OOOOOOOOOOOOOOOOOOOOOOOO    OOOOOOOOOOOOOOOOOOOOOOOOOOOOOOOOOOOOOOOOOOOOOOOOOOOOOOOOOOOOOOOOOOOOOOOO    OOOOOOOOOOOOOOOOOOOOOOOO",
"OOOOOOOOOOOOOOOOOOOOOOOO    OOOOOOOOOOOOOOOOOOOOOOOOOOOOOOOOOOOOOOOOOOOOOOOOOOOOOOOOOOOOOOOOOOOOOOOO    OOOOOOOOOOOOOOOOOOOOOOOO",
"OOOOOOOOOOOOOOOOOOOOOOOO    OOOOOOOOOOOOOOOOOOOOOOOOOOOOOOOOOOOOOOOOOOOOOOOOOOOOOOOOOOOOOOOOOOOOOOOO    OOOOOOOOOOOOOOOOOOOOOOOO",
"OOOOOOOOOOOOOOOOOOOOOOOO    OOOOOOOOOOOOOOOOOOOOOOOOOOOOOOOOOOOOOOOOOOOOOOOOOOOOOOOOOOOOOOOOOOOOOOOO    OOOOOOOOOOOOOOOOOOOOOOOO",
"OOOOOOOOOOOOOOOOOOOOOOOO    OOOOOOOOOOOOOOOOOOOOOOOOOOOOOOOOOOOOOOOOOOOOOOOOOOOOOOOOOOOOOOOOOOOOOOOO    OOOOOOOOOOOOOOOOOOOOOOOO",
"OOOOOOOOOOOOOOOOOOOOOOOO    OOOOOOOOOOOOOOOOOOOOOOOOOOOOOOOOOOOOOOOOOOOOOOOOOOOOOOOOOOOOOOOOOOOOOOOO    OOOOOOOOOOOOOOOOOOOOOOOO",
"OOOOOOOOOOOOOOOOOOOOOOOO    OOOOOOOOOOOOOOOOOOOOOOOOOOOOOOOOOOOOOOOOOOOOOOOOOOOOOOOOOOOOOOOOOOOOOOOO    OOOOOOOOOOOOOOOOOOOOOOOO",
"OOOOOOOOOOOOOOOOOOOOOOOO    OOOOOOOOOOOOOOOOOOOOOOOOOOOOOOOOOOOOOOOOOOOOOOOOOOOOOOOOOOOOOOOOOOOOOOOO    OOOOOOOOOOOOOOOOOOOOOOOO",
"    oooo....    ....        oooo                                                                    oooo                oooo    ",
"    oooo....    ....        oooo                                                                    oooo                oooo    ",
"    oooo....    ....        oooo                                                                    oooo                oooo    ",
"    oooo....    ....        oooo                                                                    oooo                oooo    ",
"XXXXXXXXXXXXooooXXXXoooo....XXXXXXXXXXXXXXXXXXXXXXXXXXXXXXXXXXXX    XXXXXXXXXXXXXXXXXXXXXXXXXXXX....XXXXoooo....XXXX....XXXXXXXX",
"XXXXXXXXXXXXooooXXXXoooo....XXXXXXXXXXXXXXXXXXXXXXXXXXXXXXXXXXXX    XXXXXXXXXXXXXXXXXXXXXXXXXXXX....XXXXoooo....XXXX....XXXXXXXX",
"XXXXXXXXXXXXooooXXXXoooo....XXXXXXXXXXXXXXXXXXXXXXXXXXXXXXXXXXXX    XXXXXXXXXXXXXXXXXXXXXXXXXXXX....XXXXoooo....XXXX....XXXXXXXX",
"XXXXXXXXXXXXooooXXXXoooo....XXXXXXXXXXXXXXXXXXXXXXXXXXXXXXXXXXXX    XXXXXXXXXXXXXXXXXXXXXXXXXXXX....XXXXoooo....XXXX....XXXXXXXX",
"OOOOOOOOOOOOOOOO....OOOOOOOOooooOOOOOOOOOOOOOOOOOOOOOOOOOOOOOOOO    OOOOOOOOOOOOOOOOOOOOOOOOOOOOOOOOooooOOOOOOOOooooOOOO....OOOO",
"OOOOOOOOOOOOOOOO....OOOOOOOOooooOOOOOOOOOOOOOOOOOOOOOOOOOOOOOOOO    OOOOOOOOOOOOOOOOOOOOOOOOOOOOOOOOooooOOOOOOOOooooOOOO....OOOO",
"OOOOOOOOOOOOOOOO....OOOOOOOOooooOOOOOOOOOOOOOOOOOOOOOOOOOOOOOOOO    OOOOOOOOOOOOOOOOOOOOOOOOOOOOOOOOooooOOOOOOOOooooOOOO....OOOO",
"OOOOOOOOOOOOOOOO....OOOOOOOOooooOOOOOOOOOOOOOOOOOOOOOOOOOOOOOOOO    OOOOOOOOOOOOOOOOOOOOOOOOOOOOOOOOooooOOOOOOOOooooOOOO....OOOO",
"OOOOOOOOOOOOOOOOooooOOOOOOOO....OOOOOOOOOOOOOOOOOOOOOOOOOOOOOOOO    OOOOOOOOOOOOOOOOOOOOOOOOOOOOOOOOOOOO....OOOOOOOO....OOOOOOOO",
"OOOOOOOOOOOOOOOOooooOOOOOOOO....OOOOOOOOOOOOOOOOOOOOOOOOOOOOOOOO    OOOOOOOOOOOOOOOOOOOOOOOOOOOOOOOOOOOO....OOOOOOOO....OOOOOOOO",
"OOOOOOOOOOOOOOOOooooOOOOOOOO....OOOOOOOOOOOOOOOOOOOOOOOOOOOOOOOO    OOOOOOOOOOOOOOOOOOOOOOOOOOOOOOOOOOOO....OOOOOOOO....OOOOOOOO",
"OOOOOOOOOOOOOOOOooooOOOOOOOO....OOOOOOOOOOOOOOOOOOOOOOOOOOOOOOOO    OOOOOOOOOOOOOOOOOOOOOOOOOOOOOOOOOOOO....OOOOOOOO....OOOOOOOO",
"OOOOOOOOOOOO....OOOOOOOOOOOOOOOOooooOOOOOOOOOOOOOOOOOOOOOOOOOOOO    OOOOOOOOOOOOOOOOOOOOOOOOOOOOOOOO....OOOOOOOOOOOOOOOOooooOOOO",
"OOOOOOOOOOOO....OOOOOOOOOOOOOOOOooooOOOOOOOOOOOOOOOOOOOOOOOOOOOO    OOOOOOOOOOOOOOOOOOOOOOOOOOOOOOOO....OOOOOOOOOOOOOOOOooooOOOO",
"OOOOOOOOOOOO....OOOOOOOOOOOOOOOOooooOOOOOOOOOOOOOOOOOOOOOOOOOOOO    OOOOOOOOOOOOOOOOOOOOOOOOOOOOOOOO....OOOOOOOOOOOOOOOOooooOOOO",
"OOOOOOOOOOOO....OOOOOOOOOOOOOOOOooooOOOOOOOOOOOOOOOOOOOOOOOOOOOO    OOOOOOOOOOOOOOOOOOOOOOOOOOOOOOOO....OOOOOOOOOOOOOOOOooooOOOO",
"OOOOOOOOOOOOOOOOOOOOOOOOOOOO....OOOOOOOOOOOOOOOOOOOOOOOOOOOOOOOO    OOOOOOOOOOOOOOOOOOOOOOOOOOOOOOOOooooOOOOOOOOOOOOOOOOOOOOOOOO",
"OOOOOOOOOOOOOOOOOOOOOOOOOOOO....OOOOOOOOOOOOOOOOOOOOOOOOOOOOOOOO    OOOOOOOOOOOOOOOOOOOOOOOOOOOOOOOOooooOOOOOOOOOOOOOOOOOOOOOOOO",
"OOOOOOOOOOOOOOOOOOOOOOOOOOOO....OOOOOOOOOOOOOOOOOOOOOOOOOOOOOOOO    OOOOOOOOOOOOOOOOOOOOOOOOOOOOOOOOooooOOOOOOOOOOOOOOOOOOOOOOOO",
"OOOOOOOOOOOOOOOOOOOOOOOOOOOO....OOOOOOOOOOOOOOOOOOOOOOOOOOOOOOOO    OOOOOOOOOOOOOOOOOOOOOOOOOOOOOOOOooooOOOOOOOOOOOOOOOOOOOOOOOO",
"OOOOOOOOOOOOOOOOOOOOOOOOOOOOOOOOOOOOOOOOOOOOOOOOOOOOOOOOOOOOOOOO    OOOOOOOOOOOOOOOOOOOOOOOOOOOOOOOOOOOOOOOOOOOOOOOOOOOOOOOOOOOO",
"OOOOOOOOOOOOOOOOOOOOOOOOOOOOOOOOOOOOOOOOOOOOOOOOOOOOOOOOOOOOOOOO    OOOOOOOOOOOOOOOOOOOOOOOOOOOOOOOOOOOOOOOOOOOOOOOOOOOOOOOOOOOO",
"OOOOOOOOOOOOOOOOOOOOOOOOOOOOOOOOOOOOOOOOOOOOOOOOOOOOOOOOOOOOOOOO    OOOOOOOOOOOOOOOOOOOOOOOOOOOOOOOOOOOOOOOOOOOOOOOOOOOOOOOOOOOO",
"OOOOOOOOOOOOOOOOOOOOOOOOOOOOOOOOOOOOOOOOOOOOOOOOOOOOOOOOOOOOOOOO    OOOOOOOOOOOOOOOOOOOOOOOOOOOOOOOOOOOOOOOOOOOOOOOOOOOOOOOOOOOO",
"OOOOOOOOOOOOOOOOOOOOOOOOOOOOOOOOOOOOOOOOOOOOOOOOOOOOOOOOOOOOOOOO    OOOOOOOOOOOOOOOOOOOOOOOOOOOOOOOOOOOOOOOOOOOOOOOOOOOOOOOOOOOO",
"OOOOOOOOOOOOOOOOOOOOOOOOOOOOOOOOOOOOOOOOOOOOOOOOOOOOOOOOOOOOOOOO    OOOOOOOOOOOOOOOOOOOOOOOOOOOOOOOOOOOOOOOOOOOOOOOOOOOOOOOOOOOO",
"OOOOOOOOOOOOOOOOOOOOOOOOOOOOOOOOOOOOOOOOOOOOOOOOOOOOOOOOOOOOOOOO    OOOOOOOOOOOOOOOOOOOOOOOOOOOOOOOOOOOOOOOOOOOOOOOOOOOOOOOOOOOO",
"OOOOOOOOOOOOOOOOOOOOOOOOOOOOOOOOOOOOOOOOOOOOOOOOOOOOOOOOOOOOOOOO    OOOOOOOOOOOOOOOOOOOOOOOOOOOOOOOOOOOOOOOOOOOOOOOOOOOOOOOOOOOO"
};
