/* XPM */
static const char *Wall_vines_fireflies[] = {
/* columns rows colors chars-per-pixel */
"128 128 6 1 ",
"  c #363436",
". c #38473D",
"X c #464646",
"o c #4E6154",
"O c gray38",
"+ c #FFF9BD",
/* pixels */
"            oooo                                                    ....        oooo                                            ",
"            oooo                                                    ....        oooo                                            ",
"            oooo                                                    ....        oooo                                            ",
"            oooo                                                    ....        oooo                                            ",
"ooooXXXXXXXX....XXXXXXXX    XXXXXXXXXXXXXXXXXXXXXXXXXXXXXXXX....ooooXXXXoooo....++++ooooXXXXXXXXXXXX    XXXXXXXXXXXXXXXXXXXXXXXX",
"ooooXXXXXXXX....XXXXXXXX    XXXXXXXXXXXXXXXXXXXXXXXXXXXXXXXX....ooooXXXXoooo....++++ooooXXXXXXXXXXXX    XXXXXXXXXXXXXXXXXXXXXXXX",
"ooooXXXXXXXX....XXXXXXXX    XXXXXXXXXXXXXXXXXXXXXXXXXXXXXXXX....ooooXXXXoooo....++++ooooXXXXXXXXXXXX    XXXXXXXXXXXXXXXXXXXXXXXX",
"ooooXXXXXXXX....XXXXXXXX    XXXXXXXXXXXXXXXXXXXXXXXXXXXXXXXX....ooooXXXXoooo....++++ooooXXXXXXXXXXXX    XXXXXXXXXXXXXXXXXXXXXXXX",
"....OOOO....OOOOOOOOOOOO    OOOOOOOOOOOOOOOOOOOOOOOOOOOOooooOOOO++++....OOOOOOOOOOOO....OOOOOOOOOOOO    OOOOOOOOOOOOOOOOOOOOOOOO",
"....OOOO....OOOOOOOOOOOO    OOOOOOOOOOOOOOOOOOOOOOOOOOOOooooOOOO++++....OOOOOOOOOOOO....OOOOOOOOOOOO    OOOOOOOOOOOOOOOOOOOOOOOO",
"....OOOO....OOOOOOOOOOOO    OOOOOOOOOOOOOOOOOOOOOOOOOOOOooooOOOO++++....OOOOOOOOOOOO....OOOOOOOOOOOO    OOOOOOOOOOOOOOOOOOOOOOOO",
"....OOOO....OOOOOOOOOOOO    OOOOOOOOOOOOOOOOOOOOOOOOOOOOooooOOOO++++....OOOOOOOOOOOO....OOOOOOOOOOOO    OOOOOOOOOOOOOOOOOOOOOOOO",
"OOOO++++OOOOOOOOOOOOOOOO    OOOOOOOOOOOOOOOOOOOOOOOOOOOO....OOOOOOOOOOOOooooOOOO....OOOOooooOOOOOOOO    OOOOOOOOOOOOOOOOOOOOoooo",
"OOOO++++OOOOOOOOOOOOOOOO    OOOOOOOOOOOOOOOOOOOOOOOOOOOO....OOOOOOOOOOOOooooOOOO....OOOOooooOOOOOOOO    OOOOOOOOOOOOOOOOOOOOoooo",
"OOOO++++OOOOOOOOOOOOOOOO    OOOOOOOOOOOOOOOOOOOOOOOOOOOO....OOOOOOOOOOOOooooOOOO....OOOOooooOOOOOOOO    OOOOOOOOOOOOOOOOOOOOoooo",
"OOOO++++OOOOOOOOOOOOOOOO    OOOOOOOOOOOOOOOOOOOOOOOOOOOO....OOOOOOOOOOOOooooOOOO....OOOOooooOOOOOOOO    OOOOOOOOOOOOOOOOOOOOoooo",
"OOOO....OOOOOOOOOOOOOOOO    OOOOOOOOOOOOOOOOOOOOOOOOOOOOOOOOOOOOOOOOOOOO....OOOOOOOOOOOO....OOOOOOOO    OOOOOOOOOOOOOOOOOOOO....",
"OOOO....OOOOOOOOOOOOOOOO    OOOOOOOOOOOOOOOOOOOOOOOOOOOOOOOOOOOOOOOOOOOO....OOOOOOOOOOOO....OOOOOOOO    OOOOOOOOOOOOOOOOOOOO....",
"OOOO....OOOOOOOOOOOOOOOO    OOOOOOOOOOOOOOOOOOOOOOOOOOOOOOOOOOOOOOOOOOOO....OOOOOOOOOOOO....OOOOOOOO    OOOOOOOOOOOOOOOOOOOO....",
"OOOO....OOOOOOOOOOOOOOOO    OOOOOOOOOOOOOOOOOOOOOOOOOOOOOOOOOOOOOOOOOOOO....OOOOOOOOOOOO....OOOOOOOO    OOOOOOOOOOOOOOOOOOOO....",
"ooooOOOOOOOOOOOOOOOOOOOO    OOOOOOOOOOOOOOOOOOOOOOOOOOOOOOOOOOOOOOOO....OOOOOOOOOOOOOOOO++++ooooOOOO    OOOOOOOOOOOOOOOOoooo++++",
"ooooOOOOOOOOOOOOOOOOOOOO    OOOOOOOOOOOOOOOOOOOOOOOOOOOOOOOOOOOOOOOO....OOOOOOOOOOOOOOOO++++ooooOOOO    OOOOOOOOOOOOOOOOoooo++++",
"ooooOOOOOOOOOOOOOOOOOOOO    OOOOOOOOOOOOOOOOOOOOOOOOOOOOOOOOOOOOOOOO....OOOOOOOOOOOOOOOO++++ooooOOOO    OOOOOOOOOOOOOOOOoooo++++",
"ooooOOOOOOOOOOOOOOOOOOOO    OOOOOOOOOOOOOOOOOOOOOOOOOOOOOOOOOOOOOOOO....OOOOOOOOOOOOOOOO++++ooooOOOO    OOOOOOOOOOOOOOOOoooo++++",
"OOOO....OOOOOOOOOOOOOOOO    OOOOOOOOOOOOOOOOOOOOOOOOOOOOOOOOOOOOOOOOOOOOOOOOOOOOOOOOOOOOOOOO....OOOO    OOOOOOOOOOOOOOOO....OOOO",
"OOOO....OOOOOOOOOOOOOOOO    OOOOOOOOOOOOOOOOOOOOOOOOOOOOOOOOOOOOOOOOOOOOOOOOOOOOOOOOOOOOOOOO....OOOO    OOOOOOOOOOOOOOOO....OOOO",
"OOOO....OOOOOOOOOOOOOOOO    OOOOOOOOOOOOOOOOOOOOOOOOOOOOOOOOOOOOOOOOOOOOOOOOOOOOOOOOOOOOOOOO....OOOO    OOOOOOOOOOOOOOOO....OOOO",
"OOOO....OOOOOOOOOOOOOOOO    OOOOOOOOOOOOOOOOOOOOOOOOOOOOOOOOOOOOOOOOOOOOOOOOOOOOOOOOOOOOOOOO....OOOO    OOOOOOOOOOOOOOOO....OOOO",
"OOOOOOOOooooOOOOOOOOOOOO    OOOOOOOOOOOOOOOOOOOOOOOOOOOOOOOOOOOOOOOOOOOOOOOOOOOOOOOO....ooooOOOOOOOO    OOOOOOOOOOOOooooOOOO....",
"OOOOOOOOooooOOOOOOOOOOOO    OOOOOOOOOOOOOOOOOOOOOOOOOOOOOOOOOOOOOOOOOOOOOOOOOOOOOOOO....ooooOOOOOOOO    OOOOOOOOOOOOooooOOOO....",
"OOOOOOOOooooOOOOOOOOOOOO    OOOOOOOOOOOOOOOOOOOOOOOOOOOOOOOOOOOOOOOOOOOOOOOOOOOOOOOO....ooooOOOOOOOO    OOOOOOOOOOOOooooOOOO....",
"OOOOOOOOooooOOOOOOOOOOOO    OOOOOOOOOOOOOOOOOOOOOOOOOOOOOOOOOOOOOOOOOOOOOOOOOOOOOOOO....ooooOOOOOOOO    OOOOOOOOOOOOooooOOOO....",
"        ....++++                                                                                                    ....++++    ",
"        ....++++                                                                                                    ....++++    ",
"        ....++++                                                                                                    ....++++    ",
"        ....++++                                                                                                    ....++++    ",
"XXXXooooXXXXooooXXXXXXXXXXXXXXXXXXXXXXXXXXXXXXXXXXXXXXXXXXXXXXXX    XXXXXXXXXXXXXXXXXXXXXXXXXXXXXXXXXXXXXXXXXXXXooooXXXX....XXXX",
"XXXXooooXXXXooooXXXXXXXXXXXXXXXXXXXXXXXXXXXXXXXXXXXXXXXXXXXXXXXX    XXXXXXXXXXXXXXXXXXXXXXXXXXXXXXXXXXXXXXXXXXXXooooXXXX....XXXX",
"XXXXooooXXXXooooXXXXXXXXXXXXXXXXXXXXXXXXXXXXXXXXXXXXXXXXXXXXXXXX    XXXXXXXXXXXXXXXXXXXXXXXXXXXXXXXXXXXXXXXXXXXXooooXXXX....XXXX",
"XXXXooooXXXXooooXXXXXXXXXXXXXXXXXXXXXXXXXXXXXXXXXXXXXXXXXXXXXXXX    XXXXXXXXXXXXXXXXXXXXXXXXXXXXXXXXXXXXXXXXXXXXooooXXXX....XXXX",
"OOOO....OOOO....OOOOooooOOOOOOOOOOOOOOOOOOOOOOOOOOOOOOOOOOOOOOOO    OOOOOOOOOOOOOOOOOOOOOOOOOOOOOOOOOOOOOOOO++++....OOOOOOOO....",
"OOOO....OOOO....OOOOooooOOOOOOOOOOOOOOOOOOOOOOOOOOOOOOOOOOOOOOOO    OOOOOOOOOOOOOOOOOOOOOOOOOOOOOOOOOOOOOOOO++++....OOOOOOOO....",
"OOOO....OOOO....OOOOooooOOOOOOOOOOOOOOOOOOOOOOOOOOOOOOOOOOOOOOOO    OOOOOOOOOOOOOOOOOOOOOOOOOOOOOOOOOOOOOOOO++++....OOOOOOOO....",
"OOOO....OOOO....OOOOooooOOOOOOOOOOOOOOOOOOOOOOOOOOOOOOOOOOOOOOOO    OOOOOOOOOOOOOOOOOOOOOOOOOOOOOOOOOOOOOOOO++++....OOOOOOOO....",
"ooooOOOOOOOOOOOO....OOOO....OOOOOOOOOOOOOOOOOOOOOOOOOOOOOOOOOOOO    OOOOOOOOOOOOOOOOOOOOOOOOOOOOOOOOOOOOOOOOOOOOOOOOooooOOOOOOOO",
"ooooOOOOOOOOOOOO....OOOO....OOOOOOOOOOOOOOOOOOOOOOOOOOOOOOOOOOOO    OOOOOOOOOOOOOOOOOOOOOOOOOOOOOOOOOOOOOOOOOOOOOOOOooooOOOOOOOO",
"ooooOOOOOOOOOOOO....OOOO....OOOOOOOOOOOOOOOOOOOOOOOOOOOOOOOOOOOO    OOOOOOOOOOOOOOOOOOOOOOOOOOOOOOOOOOOOOOOOOOOOOOOOooooOOOOOOOO",
"ooooOOOOOOOOOOOO....OOOO....OOOOOOOOOOOOOOOOOOOOOOOOOOOOOOOOOOOO    OOOOOOOOOOOOOOOOOOOOOOOOOOOOOOOOOOOOOOOOOOOOOOOOooooOOOOOOOO",
"OOOOOOOOOOOOoooo++++OOOOOOOOOOOOOOOOOOOOOOOOOOOOOOOOOOOOOOOOOOOO    OOOOOOOOOOOOOOOOOOOOOOOOOOOOOOOOOOOOOOOOOOOO....OOOOOOOOOOOO",
"OOOOOOOOOOOOoooo++++OOOOOOOOOOOOOOOOOOOOOOOOOOOOOOOOOOOOOOOOOOOO    OOOOOOOOOOOOOOOOOOOOOOOOOOOOOOOOOOOOOOOOOOOO....OOOOOOOOOOOO",
"OOOOOOOOOOOOoooo++++OOOOOOOOOOOOOOOOOOOOOOOOOOOOOOOOOOOOOOOOOOOO    OOOOOOOOOOOOOOOOOOOOOOOOOOOOOOOOOOOOOOOOOOOO....OOOOOOOOOOOO",
"OOOOOOOOOOOOoooo++++OOOOOOOOOOOOOOOOOOOOOOOOOOOOOOOOOOOOOOOOOOOO    OOOOOOOOOOOOOOOOOOOOOOOOOOOOOOOOOOOOOOOOOOOO....OOOOOOOOOOOO",
"OOOOOOOOOOOO....OOOOOOOOOOOOOOOOOOOOOOOOOOOOOOOOOOOOOOOOOOOOOOOO    OOOOOOOOOOOOOOOOOOOOOOOOOOOOOOOOOOOOOOOOOOOOOOOOOOOOOOOOOOOO",
"OOOOOOOOOOOO....OOOOOOOOOOOOOOOOOOOOOOOOOOOOOOOOOOOOOOOOOOOOOOOO    OOOOOOOOOOOOOOOOOOOOOOOOOOOOOOOOOOOOOOOOOOOOOOOOOOOOOOOOOOOO",
"OOOOOOOOOOOO....OOOOOOOOOOOOOOOOOOOOOOOOOOOOOOOOOOOOOOOOOOOOOOOO    OOOOOOOOOOOOOOOOOOOOOOOOOOOOOOOOOOOOOOOOOOOOOOOOOOOOOOOOOOOO",
"OOOOOOOOOOOO....OOOOOOOOOOOOOOOOOOOOOOOOOOOOOOOOOOOOOOOOOOOOOOOO    OOOOOOOOOOOOOOOOOOOOOOOOOOOOOOOOOOOOOOOOOOOOOOOOOOOOOOOOOOOO",
"OOOOOOOOooooOOOOOOOOOOOOOOOOOOOOOOOOOOOOOOOOOOOOOOOOOOOOOOOOOOOO    OOOOOOOOOOOOOOOOOOOOOOOOOOOOOOOOOOOOOOOOOOOOOOOOOOOOOOOOOOOO",
"OOOOOOOOooooOOOOOOOOOOOOOOOOOOOOOOOOOOOOOOOOOOOOOOOOOOOOOOOOOOOO    OOOOOOOOOOOOOOOOOOOOOOOOOOOOOOOOOOOOOOOOOOOOOOOOOOOOOOOOOOOO",
"OOOOOOOOooooOOOOOOOOOOOOOOOOOOOOOOOOOOOOOOOOOOOOOOOOOOOOOOOOOOOO    OOOOOOOOOOOOOOOOOOOOOOOOOOOOOOOOOOOOOOOOOOOOOOOOOOOOOOOOOOOO",
"OOOOOOOOooooOOOOOOOOOOOOOOOOOOOOOOOOOOOOOOOOOOOOOOOOOOOOOOOOOOOO    OOOOOOOOOOOOOOOOOOOOOOOOOOOOOOOOOOOOOOOOOOOOOOOOOOOOOOOOOOOO",
"OOOOOOOOOOOOOOOOOOOOOOOOOOOOOOOOOOOOOOOOOOOOOOOOOOOOOOOOOOOOOOOO    OOOOOOOOOOOOOOOOOOOOOOOOOOOOOOOOOOOOOOOOOOOOOOOOOOOOOOOOOOOO",
"OOOOOOOOOOOOOOOOOOOOOOOOOOOOOOOOOOOOOOOOOOOOOOOOOOOOOOOOOOOOOOOO    OOOOOOOOOOOOOOOOOOOOOOOOOOOOOOOOOOOOOOOOOOOOOOOOOOOOOOOOOOOO",
"OOOOOOOOOOOOOOOOOOOOOOOOOOOOOOOOOOOOOOOOOOOOOOOOOOOOOOOOOOOOOOOO    OOOOOOOOOOOOOOOOOOOOOOOOOOOOOOOOOOOOOOOOOOOOOOOOOOOOOOOOOOOO",
"OOOOOOOOOOOOOOOOOOOOOOOOOOOOOOOOOOOOOOOOOOOOOOOOOOOOOOOOOOOOOOOO    OOOOOOOOOOOOOOOOOOOOOOOOOOOOOOOOOOOOOOOOOOOOOOOOOOOOOOOOOOOO",
"    oooo        ++++                            ....++++            ....                                                        ",
"    oooo        ++++                            ....++++            ....                                                        ",
"    oooo        ++++                            ....++++            ....                                                        ",
"    oooo        ++++                            ....++++            ....                                                        ",
"....XXXXoooo....XXXXXXXX    XXXXXXXXXXXXXXXXXXXXXXXXoooo....XXXX....XXXXXXXX....XXXXXXXXXXXXXXXXXXXX    XXXXXXXXXXXXXXXXXXXXXXXX",
"....XXXXoooo....XXXXXXXX    XXXXXXXXXXXXXXXXXXXXXXXXoooo....XXXX....XXXXXXXX....XXXXXXXXXXXXXXXXXXXX    XXXXXXXXXXXXXXXXXXXXXXXX",
"....XXXXoooo....XXXXXXXX    XXXXXXXXXXXXXXXXXXXXXXXXoooo....XXXX....XXXXXXXX....XXXXXXXXXXXXXXXXXXXX    XXXXXXXXXXXXXXXXXXXXXXXX",
"....XXXXoooo....XXXXXXXX    XXXXXXXXXXXXXXXXXXXXXXXXoooo....XXXX....XXXXXXXX....XXXXXXXXXXXXXXXXXXXX    XXXXXXXXXXXXXXXXXXXXXXXX",
"OOOO++++OOOOOOOOOOOOOOOO    OOOOOOOOOOOOOOOOOOOOOOOOOOOOOOOOooooOOOOoooo++++OOOOOOOOOOOOOOOOOOOOOOOO    OOOOOOOOOOOOOOOOOOOOOOOO",
"OOOO++++OOOOOOOOOOOOOOOO    OOOOOOOOOOOOOOOOOOOOOOOOOOOOOOOOooooOOOOoooo++++OOOOOOOOOOOOOOOOOOOOOOOO    OOOOOOOOOOOOOOOOOOOOOOOO",
"OOOO++++OOOOOOOOOOOOOOOO    OOOOOOOOOOOOOOOOOOOOOOOOOOOOOOOOooooOOOOoooo++++OOOOOOOOOOOOOOOOOOOOOOOO    OOOOOOOOOOOOOOOOOOOOOOOO",
"OOOO++++OOOOOOOOOOOOOOOO    OOOOOOOOOOOOOOOOOOOOOOOOOOOOOOOOooooOOOOoooo++++OOOOOOOOOOOOOOOOOOOOOOOO    OOOOOOOOOOOOOOOOOOOOOOOO",
"OOOOooooOOOOOOOOOOOOOOOO    OOOOOOOOOOOOOOOOOOOOOOOOOOOO++++OOOO....OOOOOOOOooooOOOOOOOOOOOOOOOOOOOO    OOOOOOOOOOOOOOOOOOOOOOOO",
"OOOOooooOOOOOOOOOOOOOOOO    OOOOOOOOOOOOOOOOOOOOOOOOOOOO++++OOOO....OOOOOOOOooooOOOOOOOOOOOOOOOOOOOO    OOOOOOOOOOOOOOOOOOOOOOOO",
"OOOOooooOOOOOOOOOOOOOOOO    OOOOOOOOOOOOOOOOOOOOOOOOOOOO++++OOOO....OOOOOOOOooooOOOOOOOOOOOOOOOOOOOO    OOOOOOOOOOOOOOOOOOOOOOOO",
"OOOOooooOOOOOOOOOOOOOOOO    OOOOOOOOOOOOOOOOOOOOOOOOOOOO++++OOOO....OOOOOOOOooooOOOOOOOOOOOOOOOOOOOO    OOOOOOOOOOOOOOOOOOOOOOOO",
"....OOOOOOOOOOOOOOOOOOOO    OOOOOOOOOOOOOOOOOOOOoooo....OOOOOOOOOOOO....OOOOOOOOOOOOOOOOOOOOOOOOOOOO    OOOOOOOOOOOOOOOOOOOOOOOO",
"....OOOOOOOOOOOOOOOOOOOO    OOOOOOOOOOOOOOOOOOOOoooo....OOOOOOOOOOOO....OOOOOOOOOOOOOOOOOOOOOOOOOOOO    OOOOOOOOOOOOOOOOOOOOOOOO",
"....OOOOOOOOOOOOOOOOOOOO    OOOOOOOOOOOOOOOOOOOOoooo....OOOOOOOOOOOO....OOOOOOOOOOOOOOOOOOOOOOOOOOOO    OOOOOOOOOOOOOOOOOOOOOOOO",
"....OOOOOOOOOOOOOOOOOOOO    OOOOOOOOOOOOOOOOOOOOoooo....OOOOOOOOOOOO....OOOOOOOOOOOOOOOOOOOOOOOOOOOO    OOOOOOOOOOOOOOOOOOOOOOOO",
"OOOOooooOOOOOOOOOOOOOOOO    OOOOOOOOOOOOOOOOOOOOOOOOOOOOOOOOOOOOOOOOooooOOOOOOOOOOOOOOOOOOOOOOOOOOOO    OOOOOOOOOOOOOOOOOOOOOOOO",
"OOOOooooOOOOOOOOOOOOOOOO    OOOOOOOOOOOOOOOOOOOOOOOOOOOOOOOOOOOOOOOOooooOOOOOOOOOOOOOOOOOOOOOOOOOOOO    OOOOOOOOOOOOOOOOOOOOOOOO",
"OOOOooooOOOOOOOOOOOOOOOO    OOOOOOOOOOOOOOOOOOOOOOOOOOOOOOOOOOOOOOOOooooOOOOOOOOOOOOOOOOOOOOOOOOOOOO    OOOOOOOOOOOOOOOOOOOOOOOO",
"OOOOooooOOOOOOOOOOOOOOOO    OOOOOOOOOOOOOOOOOOOOOOOOOOOOOOOOOOOOOOOOooooOOOOOOOOOOOOOOOOOOOOOOOOOOOO    OOOOOOOOOOOOOOOOOOOOOOOO",
"OOOOOOOOOOOOOOOOOOOOOOOO    OOOOOOOOOOOOOOOOOOOOOOOOOOOOOOOOOOOOOOOOOOOOOOOOOOOOOOOOOOOOOOOOOOOOOOOO    OOOOOOOOOOOOOOOOOOOOOOOO",
"OOOOOOOOOOOOOOOOOOOOOOOO    OOOOOOOOOOOOOOOOOOOOOOOOOOOOOOOOOOOOOOOOOOOOOOOOOOOOOOOOOOOOOOOOOOOOOOOO    OOOOOOOOOOOOOOOOOOOOOOOO",
"OOOOOOOOOOOOOOOOOOOOOOOO    OOOOOOOOOOOOOOOOOOOOOOOOOOOOOOOOOOOOOOOOOOOOOOOOOOOOOOOOOOOOOOOOOOOOOOOO    OOOOOOOOOOOOOOOOOOOOOOOO",
"OOOOOOOOOOOOOOOOOOOOOOOO    OOOOOOOOOOOOOOOOOOOOOOOOOOOOOOOOOOOOOOOOOOOOOOOOOOOOOOOOOOOOOOOOOOOOOOOO    OOOOOOOOOOOOOOOOOOOOOOOO",
"OOOOOOOOOOOOOOOOOOOOOOOO    OOOOOOOOOOOOOOOOOOOOOOOOOOOOOOOOOOOOOOOOOOOOOOOOOOOOOOOOOOOOOOOOOOOOOOOO    OOOOOOOOOOOOOOOOOOOOOOOO",
"OOOOOOOOOOOOOOOOOOOOOOOO    OOOOOOOOOOOOOOOOOOOOOOOOOOOOOOOOOOOOOOOOOOOOOOOOOOOOOOOOOOOOOOOOOOOOOOOO    OOOOOOOOOOOOOOOOOOOOOOOO",
"OOOOOOOOOOOOOOOOOOOOOOOO    OOOOOOOOOOOOOOOOOOOOOOOOOOOOOOOOOOOOOOOOOOOOOOOOOOOOOOOOOOOOOOOOOOOOOOOO    OOOOOOOOOOOOOOOOOOOOOOOO",
"OOOOOOOOOOOOOOOOOOOOOOOO    OOOOOOOOOOOOOOOOOOOOOOOOOOOOOOOOOOOOOOOOOOOOOOOOOOOOOOOOOOOOOOOOOOOOOOOO    OOOOOOOOOOOOOOOOOOOOOOOO",
"    oooo++++    ....        oooo                                                                    oooo            ++++oooo    ",
"    oooo++++    ....        oooo                                                                    oooo            ++++oooo    ",
"    oooo++++    ....        oooo                                                                    oooo            ++++oooo    ",
"    oooo++++    ....        oooo                                                                    oooo            ++++oooo    ",
"XXXXXXXXXXXXooooXXXXoooo....XXXXXXXXXXXXXXXXXXXXXXXXXXXXXXXXXXXX    XXXXXXXXXXXXXXXXXXXXXXXX++++....XXXXoooo....XXXX....XXXXXXXX",
"XXXXXXXXXXXXooooXXXXoooo....XXXXXXXXXXXXXXXXXXXXXXXXXXXXXXXXXXXX    XXXXXXXXXXXXXXXXXXXXXXXX++++....XXXXoooo....XXXX....XXXXXXXX",
"XXXXXXXXXXXXooooXXXXoooo....XXXXXXXXXXXXXXXXXXXXXXXXXXXXXXXXXXXX    XXXXXXXXXXXXXXXXXXXXXXXX++++....XXXXoooo....XXXX....XXXXXXXX",
"XXXXXXXXXXXXooooXXXXoooo....XXXXXXXXXXXXXXXXXXXXXXXXXXXXXXXXXXXX    XXXXXXXXXXXXXXXXXXXXXXXX++++....XXXXoooo....XXXX....XXXXXXXX",
"OOOOOOOOOOOOOOOO....++++OOOOooooOOOOOOOOOOOOOOOOOOOOOOOOOOOOOOOO    OOOOOOOOOOOOOOOOOOOOOOOOOOOOOOOOooooOOOO++++ooooOOOO....OOOO",
"OOOOOOOOOOOOOOOO....++++OOOOooooOOOOOOOOOOOOOOOOOOOOOOOOOOOOOOOO    OOOOOOOOOOOOOOOOOOOOOOOOOOOOOOOOooooOOOO++++ooooOOOO....OOOO",
"OOOOOOOOOOOOOOOO....++++OOOOooooOOOOOOOOOOOOOOOOOOOOOOOOOOOOOOOO    OOOOOOOOOOOOOOOOOOOOOOOOOOOOOOOOooooOOOO++++ooooOOOO....OOOO",
"OOOOOOOOOOOOOOOO....++++OOOOooooOOOOOOOOOOOOOOOOOOOOOOOOOOOOOOOO    OOOOOOOOOOOOOOOOOOOOOOOOOOOOOOOOooooOOOO++++ooooOOOO....OOOO",
"OOOOOOOOOOOOOOOOooooOOOOOOOO....++++OOOOOOOOOOOOOOOOOOOOOOOOOOOO    OOOOOOOOOOOOOOOOOOOOOOOOOOOOOOOOOOOO....OOOOOOOO....OOOOOOOO",
"OOOOOOOOOOOOOOOOooooOOOOOOOO....++++OOOOOOOOOOOOOOOOOOOOOOOOOOOO    OOOOOOOOOOOOOOOOOOOOOOOOOOOOOOOOOOOO....OOOOOOOO....OOOOOOOO",
"OOOOOOOOOOOOOOOOooooOOOOOOOO....++++OOOOOOOOOOOOOOOOOOOOOOOOOOOO    OOOOOOOOOOOOOOOOOOOOOOOOOOOOOOOOOOOO....OOOOOOOO....OOOOOOOO",
"OOOOOOOOOOOOOOOOooooOOOOOOOO....++++OOOOOOOOOOOOOOOOOOOOOOOOOOOO    OOOOOOOOOOOOOOOOOOOOOOOOOOOOOOOOOOOO....OOOOOOOO....OOOOOOOO",
"OOOOOOOOOOOO....OOOOOOOOOOOOOOOOooooOOOOOOOOOOOOOOOOOOOOOOOOOOOO    OOOOOOOOOOOOOOOOOOOOOOOOOOOOOOOO....OOOOOOOOOOOOOOOOooooOOOO",
"OOOOOOOOOOOO....OOOOOOOOOOOOOOOOooooOOOOOOOOOOOOOOOOOOOOOOOOOOOO    OOOOOOOOOOOOOOOOOOOOOOOOOOOOOOOO....OOOOOOOOOOOOOOOOooooOOOO",
"OOOOOOOOOOOO....OOOOOOOOOOOOOOOOooooOOOOOOOOOOOOOOOOOOOOOOOOOOOO    OOOOOOOOOOOOOOOOOOOOOOOOOOOOOOOO....OOOOOOOOOOOOOOOOooooOOOO",
"OOOOOOOOOOOO....OOOOOOOOOOOOOOOOooooOOOOOOOOOOOOOOOOOOOOOOOOOOOO    OOOOOOOOOOOOOOOOOOOOOOOOOOOOOOOO....OOOOOOOOOOOOOOOOooooOOOO",
"OOOOOOOOOOOOOOOOOOOOOOOOOOOO....OOOOOOOOOOOOOOOOOOOOOOOOOOOOOOOO    OOOOOOOOOOOOOOOOOOOOOOOOOOOOOOOOooooOOOOOOOOOOOOOOOO++++OOOO",
"OOOOOOOOOOOOOOOOOOOOOOOOOOOO....OOOOOOOOOOOOOOOOOOOOOOOOOOOOOOOO    OOOOOOOOOOOOOOOOOOOOOOOOOOOOOOOOooooOOOOOOOOOOOOOOOO++++OOOO",
"OOOOOOOOOOOOOOOOOOOOOOOOOOOO....OOOOOOOOOOOOOOOOOOOOOOOOOOOOOOOO    OOOOOOOOOOOOOOOOOOOOOOOOOOOOOOOOooooOOOOOOOOOOOOOOOO++++OOOO",
"OOOOOOOOOOOOOOOOOOOOOOOOOOOO....OOOOOOOOOOOOOOOOOOOOOOOOOOOOOOOO    OOOOOOOOOOOOOOOOOOOOOOOOOOOOOOOOooooOOOOOOOOOOOOOOOO++++OOOO",
"OOOOOOOOOOOOOOOOOOOOOOOOOOOOOOOOOOOOOOOOOOOOOOOOOOOOOOOOOOOOOOOO    OOOOOOOOOOOOOOOOOOOOOOOOOOOOOOOOOOOOOOOOOOOOOOOOOOOOOOOOOOOO",
"OOOOOOOOOOOOOOOOOOOOOOOOOOOOOOOOOOOOOOOOOOOOOOOOOOOOOOOOOOOOOOOO    OOOOOOOOOOOOOOOOOOOOOOOOOOOOOOOOOOOOOOOOOOOOOOOOOOOOOOOOOOOO",
"OOOOOOOOOOOOOOOOOOOOOOOOOOOOOOOOOOOOOOOOOOOOOOOOOOOOOOOOOOOOOOOO    OOOOOOOOOOOOOOOOOOOOOOOOOOOOOOOOOOOOOOOOOOOOOOOOOOOOOOOOOOOO",
"OOOOOOOOOOOOOOOOOOOOOOOOOOOOOOOOOOOOOOOOOOOOOOOOOOOOOOOOOOOOOOOO    OOOOOOOOOOOOOOOOOOOOOOOOOOOOOOOOOOOOOOOOOOOOOOOOOOOOOOOOOOOO",
"OOOOOOOOOOOOOOOOOOOOOOOOOOOOOOOOOOOOOOOOOOOOOOOOOOOOOOOOOOOOOOOO    OOOOOOOOOOOOOOOOOOOOOOOOOOOOOOOOOOOOOOOOOOOOOOOOOOOOOOOOOOOO",
"OOOOOOOOOOOOOOOOOOOOOOOOOOOOOOOOOOOOOOOOOOOOOOOOOOOOOOOOOOOOOOOO    OOOOOOOOOOOOOOOOOOOOOOOOOOOOOOOOOOOOOOOOOOOOOOOOOOOOOOOOOOOO",
"OOOOOOOOOOOOOOOOOOOOOOOOOOOOOOOOOOOOOOOOOOOOOOOOOOOOOOOOOOOOOOOO    OOOOOOOOOOOOOOOOOOOOOOOOOOOOOOOOOOOOOOOOOOOOOOOOOOOOOOOOOOOO",
"OOOOOOOOOOOOOOOOOOOOOOOOOOOOOOOOOOOOOOOOOOOOOOOOOOOOOOOOOOOOOOOO    OOOOOOOOOOOOOOOOOOOOOOOOOOOOOOOOOOOOOOOOOOOOOOOOOOOOOOOOOOOO"
};
