/* XPM */
static const char *Collectible7[] = {
/* columns rows colors chars-per-pixel */
"36 36 17 1 ",
"  c #0F5563",
". c #0A627A",
"X c #916644",
"o c #0C7291",
"O c #11899C",
"+ c #158CAD",
"@ c #1C98AD",
"# c #229AC9",
"$ c #39AFC4",
"% c #39BBDB",
"& c #61CFE8",
"* c #92D0DE",
"= c #A0DDEB",
"- c #C3DDE3",
"; c #C7E4EB",
": c #E1EBED",
"> c #EDF1F2",
/* pixels */
"XXXXXXXXXXXXXXXXXXXXXXXXXXXXXXXXXXXX",
"XXXXXXXXXXXXXXXXXXXXXXXXXXXXXXXXXXXX",
"XXXXXXXXXXXXXXXXXXXXXXXXXXXXXXXXXXXX",
"XXXXXXXXXXXXXXXXXXXXXXXXXXXXXXXXXXXX",
"XXXXXXXXXXXXXXXXXXXXXXXXXXXXXXXXXXXX",
"XXXXXXXXXXXXXXXXXXXXXXXXXXXXXXXXXXXX",
"XXXXXXX*XXXXXXXXXXXXXXXXXXXXXXXXXXXX",
"XXXXXXX*XXXXXXXXXXXXXXXXX*XXXXXXXXXX",
"XXXXXX-:-XXXXXXXXXXXXXXX:>*XXXXXXXXX",
"XXXX**:>:**XXXXXXXXXXXXXX:XXXXXXXXXX",
"XXXXXX-:-XXX++++++++++%%XXXXXXXXXXXX",
"XXXXXXX*XXX+&&&+====+;;;%XXXXXXXXXXX",
"XXXXXXX*XXo&&&+======o;;;=XXXXXXXXXX",
"XXXXXXXXXo>&&&o======o;;;;=XXXXXXXXX",
"XXXXXXXX.o&>&o========o;;;%=XXXXXXXX",
"XXXXXXXX.Oo>oo========+++o$=XXXXXXXX",
"XXXXXXXX.OOO>ooo+==++++$$$$%XXXXXXXX",
"XXXXXXXXX.OO>Oo@@++@@+$$$$%XXXXXXXXX",
"XXXXXXXXXX.OO>.@@@@@@o$$$+XXXXXXXXXX",
"XXXXXXXXXXX.O>Oo@@@@o$$$+XXXXXXXXXXX",
"XXXXXXXXXXXX O>.@@@@o$$+XXXXXXXXXXXX",
"XXXXXXXXXXXXX >Oo@@o$$oXXX*XXXXXXXXX",
"XXXXXXXXX*XXXX >.@@o$oXXX*-*XXXXXXXX",
"XXXXXXXXX-XXXXX #.o#.XXXXX*XXXXXXXXX",
"XXXXXXX*->-*XXXX ...XXXXXXXXXXXXXXXX",
"XXXXXXXXX-XXXXXXX .XXXXXXXXXXXXXXXXX",
"XXXXXXXXX*XXXXXXXXXXXXXXXXXXXXXXXXXX",
"XXXXXXXXXXXXXXXXXXXXXXXXXXXXXXXXXXXX",
"XXXXXXXXXXXXXXXXXXXXXXXXXXXXXXXXXXXX",
"XXXXXXXXXXXXXXXXXXXXXXXXXXXXXXXXXXXX",
"XXXXXXXXXXXXXXXXXXXXXXXXXXXXXXXXXXXX",
"XXXXXXXXXXXXXXXXXXXXXXXXXXXXXXXXXXXX",
"XXXXXXXXXXXXXXXXXXXXXXXXXXXXXXXXXXXX",
"XXXXXXXXXXXXXXXXXXXXXXXXXXXXXXXXXXXX",
"XXXXXXXXXXXXXXXXXXXXXXXXXXXXXXXXXXXX",
"XXXXXXXXXXXXXXXXXXXXXXXXXXXXXXXXXXXX"
};
