/* XPM */
static const char *Collectible6[] = {
/* columns rows colors chars-per-pixel */
"36 36 17 1 ",
"  c #0F5563",
". c #0A627A",
"X c #916644",
"o c #0C7291",
"O c #11899C",
"+ c #158CAD",
"@ c #1C98AD",
"# c #229AC9",
"$ c #39AFC4",
"% c #39BBDB",
"& c #61CFE8",
"* c #92D0DE",
"= c #A0DDEB",
"- c #C3DDE3",
"; c #C7E4EB",
": c #E1EBED",
"> c #EDF1F2",
/* pixels */
"XXXXXXXXXXXXXXXXXXXXXXXXXXXXXXXXXXXX",
"XXXXXXXXXXXXXXXXXXXXXXXXXXXXXXXXXXXX",
"XXXXXXXXXXXXXXXXXXXXXXXXXXXXXXXXXXXX",
"XXXXXXXXXXXXXXXXXXXXXXXXXXXXXXXXXXXX",
"XXXXXXXXXXXXXXXXXXXXXXXXXXXXXXXXXXXX",
"XXXXXXXXXXXXXXXXXXXXXXXXXXXXXXXXXXXX",
"XXXXXXXXXXXXXXXXXXXXXXXXXXXXXXXXXXXX",
"XXXXXXX*XXXXXXXXXXXXXXXXX*XXXXXXXXXX",
"XXXXXXX-XXXXXXXXXXXXXXXX*-*XXXXXXXXX",
"XXXXX*->-*XXXXXXXXXXXXXXX*XXXXXXXXXX",
"XXXXXXX-XXXX++++++++++%%XXXXXXXXXXXX",
"XXXXXXX*XXX+>&&+====+;;;%XXXXXXXXXXX",
"XXXXXXXXXXo&&>+======o;;;=XXXXXXXXXX",
"XXXXXXXXXo&&&>o======o;;;;=XXXXXXXXX",
"XXXXXXXX.o&&&o>=======o;;;%=XXXXXXXX",
"XXXXXXXX.Ooooo>=======+++o$=XXXXXXXX",
"XXXXXXXX.OOOOooo+==++++$$$$%XXXXXXXX",
"XXXXXXXXX.OOOOo>@++@@+$$$$%XXXXXXXXX",
"XXXXXXXXXX.OOO.>@@@@@o$$$+XXXXXXXXXX",
"XXXXXXXXXXX.OOOo>@@@o$$$+XXXXXXXXXXX",
"XXXXXXXXXXXX OO.>@@@o$$+XXXXXXXXXXXX",
"XXXXXXXXX*XXX OOo>@o$$oXXX*XXXXXXXXX",
"XXXXXXXXX*XXXX O.>@o$oXXX:>*XXXXXXXX",
"XXXXXXXX-:-XXXX #.>#.XXXXX:XXXXXXXXX",
"XXXXXX**:>:**XXX ..>XXXXXXXXXXXXXXXX",
"XXXXXXXX-:-XXXXXX .XXXXXXXXXXXXXXXXX",
"XXXXXXXXX*XXXXXXXXXXXXXXXXXXXXXXXXXX",
"XXXXXXXXX*XXXXXXXXXXXXXXXXXXXXXXXXXX",
"XXXXXXXXXXXXXXXXXXXXXXXXXXXXXXXXXXXX",
"XXXXXXXXXXXXXXXXXXXXXXXXXXXXXXXXXXXX",
"XXXXXXXXXXXXXXXXXXXXXXXXXXXXXXXXXXXX",
"XXXXXXXXXXXXXXXXXXXXXXXXXXXXXXXXXXXX",
"XXXXXXXXXXXXXXXXXXXXXXXXXXXXXXXXXXXX",
"XXXXXXXXXXXXXXXXXXXXXXXXXXXXXXXXXXXX",
"XXXXXXXXXXXXXXXXXXXXXXXXXXXXXXXXXXXX",
"XXXXXXXXXXXXXXXXXXXXXXXXXXXXXXXXXXXX"
};
