/* XPM */
static const char *KnightIdleFront[] = {
/* columns rows colors chars-per-pixel */
"36 36 13 1 ",
"  c black",
". c #3D103D",
"X c #2C3B4D",
"o c #571557",
"O c #3A4B61",
"+ c #3E5D80",
"@ c #546D8E",
"# c #8F328F",
"$ c #D651D6",
"% c #709AD1",
"& c #BDB9BD",
"* c white",
"= c None",
/* pixels */
"====================================",
"=======   ================   =======",
"====== #$ ====        ==== $# ======",
"===== #$ ===  @@@@@@@@  === $# =====",
"==== ## === @@@@@@@@@@@@ === ## ====",
"==== ## === @@@@@@@@@%%@ === ## ====",
"==== o##   @@@@@@@@@@%%@@   ##o ====",
"==== oooo. %@@@@@@@@@@@@@ .oooo ====",
"===== oo.. %@@@@@@@@@@@@@ ..oo =====",
"=====  ... %@@@@@@@@@@@@@ ...  =====",
"=======    %@          @@    =======",
"========== %@  o    o  @@ ==========",
"========== %@  .    .  @@ ==========",
"========== %@OOOO  OOOO@@ ==========",
"========== %@@@@@  @@@@@@ ==========",
"========== %@@@@@  @@@@@@ ==========",
"========== O@@@@@  @@@@@O ==========",
"========== %OOOOX  XOOOO@ ==========",
"========      @@O  O@@      ========",
"======== %%%%+        +%%%% ========",
"======== @@@@ @@    @@ @@@@ ========",
"========= OO @@@@OO@@@@ OO =========",
"=========    @@@@OO@@@@    =========",
"========= OO @@@@OO@@@@ OO   =======",
"========= @@  OOOOOOOO  @@ # =======",
"========= @@  @@+%%+@@  @ .# =======",
"======== * @  OOOOOOOO   o.# =======",
"======== *     O+%%+O    oo. =======",
"======== & == +      + == .. =======",
"======== & == +@    @+ == o. =======",
"======== & ==          == oo =======",
"========= ====        ====  ========",
"============== +@  @+ ==============",
"==============        ==============",
"============== +@  @+ ==============",
"===================================="
};
