/* XPM */
static const char *GroundWithGrass[] = {
/* columns rows colors chars-per-pixel */
"36 36 6 1 ",
"  c #36471F",
". c #435727",
"X c #61422A",
"o c #4F6335",
"O c #805D42",
"+ c #916644",
/* pixels */
"++++++++++++++++++++++++O+++++++++++",
"+++++++++++++++++++++++++O++++++++++",
"++++++++++++++++++++++o+++++++++++++",
"+++++++++++++++++++++o++++++++++++++",
"+++++++++++++++++++++o+o++++++++++++",
"+++++++++++++++++++o+o.+++++++++++++",
"++++++++++++++++++++o..+++++++++++++",
"++++++++++++++++++++.. +++++++++++++",
"+++++++++++++++++++++ ++++++++++++++",
"+++++++++++++++++++++ ++++++++++++++",
"++++++++++++++++++++OXO+++++++++++++",
"++++++++++++++++++++OXO+++++++++++++",
"+++++++++++++++++++O+OO+++++++++++++",
"+++++++++++++++++++++O+O++++++++++++",
"+++++++++++++++++++++O++++++++++++++",
"+++++++++o++++++++++++O+++++++++++++",
"++++++++o+++++++++++++++++++++++++++",
"++++++++o+o+++++++++++++++++++++++++",
"++++++o+o.++++++++++++++++++++++++++",
"+++++++o..++++++++++++++++++++++++++",
"+++++++.. ++++++++++++++++++++++++++",
"++++++++ +++++++++++++++++++++++++++",
"++++++++ +++++++++++++++++++++++++++",
"+++++++OXO++++++++++++++++++++++++++",
"+++++++OXO+++++++++++++++o++++++++++",
"++++++O+OO++++++++++++++o+++++++++++",
"++++++++O+O+++++++++++++o+o+++++++++",
"++++++++O+++++++++++++o+o.++++++++++",
"+++++++++O+++++++++++++o..++++++++++",
"+++++++++++++++++++++++.. ++++++++++",
"++++++++++++++++++++++++ +++++++++++",
"++++++++++++++++++++++++ +++++++++++",
"+++++++++++++++++++++++OXO++++++++++",
"+++++++++++++++++++++++OXO++++++++++",
"++++++++++++++++++++++O+OO++++++++++",
"++++++++++++++++++++++++O+O+++++++++"
};
