/* XPM */
static const char *GroundWithRocks[] = {
/* columns rows colors chars-per-pixel */
"36 36 11 1 ",
"  c #36471F",
". c #435727",
"X c #61422A",
"o c #704E34",
"O c #4F6335",
"+ c #785942",
"@ c #805D42",
"# c #916644",
"$ c #9E745A",
"% c #A37A5F",
"& c #AB8161",
/* pixels */
"########################@###########",
"#########################@##########",
"######################O#############",
"#####################O##############",
"#####################O#O############",
"###################O#O.#############",
"##oooo##############O..#############",
"#o&&&%o#############.. #############",
"#o&%%%$o############# ##############",
"#o%%$$$o############# ##############",
"#XoooooX############@X@#############",
"#@XXXXX@############@X@#############",
"##@@@@@############@#@@####ooo######",
"#####################@#@##o&&&o#####",
"#####################@###o&&%$o#####",
"#########O############@##o&%$oX#####",
"########O################Xo%$oX#####",
"########O#O##############@++++@#####",
"######O#O.##########################",
"#######O..##########################",
"#######.. ##########################",
"######## ###########################",
"######## ###########################",
"#######@X@##########################",
"#######@X@###############O##########",
"######@#@@##############O###########",
"########@#@#############O#O#########",
"#######ooo############O#O.##########",
"######o&&%o############O..##########",
"#####o&%%$o############.. ##########",
"#####o%$ooX############# ###########",
"#####XooXX@############# ###########",
"#####@XX@@#############@X@##########",
"######@@###############@X@##########",
"######################@#@@##########",
"########################@#@#########"
};
