/* XPM */
static const char *KnightMovingRight2[] = {
/* columns rows colors chars-per-pixel */
"36 36 15 1 ",
"  c black",
". c #3D103D",
"X c #2C3B4D",
"o c #571557",
"O c #3A4B61",
"+ c gray45",
"@ c #916644",
"# c #3E5D80",
"$ c #546D8E",
"% c #8F328F",
"& c #D651D6",
"* c #709AD1",
"= c gray63",
"- c #BDB9BD",
"; c white",
/* pixels */
"@@@@@@@@@@@@@@@@@@@@@@@@@@@@@@@@@@@@",
"@@@@   @@@@@@@@@@@@@@@   @@@@@@@@@@@",
"@@@ %& @@@         @@@ &% @@@@@@@@@@",
"@@ %& @@  $$$$$$$$$  @@ &% @@@@@@@@@",
"@ o% @@ $$$$$$$$$$$$$ @@ %o @@@@@@@@",
"@ o% @@ $$**$$$$$$$$$ @@ %o @@@@@@@@",
"@ oo%   $$**$$$$$$$$$$  %oo @@@@@@@@",
"@ .ooooo $$$$$$$$$$$$$ ooo. @@@@@@@@",
"@ ..oooo $$$$$$$$$$$$$ oo.. @@@@@@@@",
"@@ ..... $$$$$$$$$$$$$ ... @@@@@@@@@",
"@@@     $$$         O$    @@@@@@@@@@",
"@@@@@@ *$$$  o    o O$ @@@@@@@@@@@@@",
"@@@@@@ *$$$  .    . O$ @@@@@@@@@@@@@",
"@@@@@@ *$$$$$$$  O$$$$ @@@@@@@@@@@@@",
"@@@@@@ *$$$$$$$  O$$$$ @@@@@@@@@@@@@",
"@@@@@@ *$$$$$$$  O$$$$ @@@@@@@@@@@@@",
"@@@@@@ O$$$$$$$  O$$$$ @@@@@@@@@@@@@",
"@@@@@@ *OOOOOOO  XOOOO @@@@@@@@@@@@@",
"@@        $$$$$  O$$$     @@@@@@@@@@",
"@@ *****$O           #*** @@@@@@@@@@",
"        $O $$$    $$$ $$ @@@@@@@@@@@",
" %%%%o. $O $$$$$O$$$$ O @@@@@@@    @",
" %%.%o. OX $$$$$O$$$$ XO @@@   ;;;; ",
" %%.%o.     OOOOOOOO        ;;;;;;= ",
"  ..... X $O$$#**$$$ $   -;;;;;;== @",
" %%.%o.   OXOOOOOOOO    --;;;===  @@",
" %%.%o. $O O$O#**$O$ $  ++===   @@@@",
" %%.%o. $            $  +    @@@@@@@",
" %%.%o.  $$$$$$  $$$  @ + @@@@@@@@@@",
"@ %%o. @ $$$$$    $$ @@ + @@@@@@@@@@",
"@@    @@@           @@@@ @@@@@@@@@@@",
"@@@@@@@@@    @@ $ #@@@@@@@@@@@@@@@@@",
"@@@@@@@@@ $$ @@ $ $@@@@@@@@@@@@@@@@@",
"@@@@@@@@@     @    @@@@@@@@@@@@@@@@@",
"@@@@@@@@@ $## @@@@@@@@@@@@@@@@@@@@@@",
"@@@@@@@@@@@@@@@@@@@@@@@@@@@@@@@@@@@@"
};
