/* XPM */
static const char *Enemy1[] = {
/* columns rows colors chars-per-pixel */
"36 36 7 1 ",
"  c #916644",
". c #13A437",
"X c #14A53B",
"o c #1DA839",
"O c #2BBA4B",
"+ c #30BA4B",
"@ c #70D080",
/* pixels */
"                                    ",
"                                    ",
"                                    ",
"                                    ",
"                                    ",
"                                    ",
"                                    ",
"                                    ",
"                                    ",
"                                    ",
"                                    ",
"                                    ",
"                                    ",
"               XXXXXX               ",
"             XXOOOOOO..             ",
"            .OOOOOOOOOO.            ",
"           .OOOOO+OOO@OO.           ",
"           .OOOO+O++O+@O.           ",
"          .OOOOOOO+OOO@OO.          ",
"          .O@OOO+++O+OOOO.          ",
"          .O@OOOOOOOOOOOO.          ",
"           .O@OOOOOOOOOO.           ",
"            .....o......            ",
"                                    ",
"                                    ",
"                                    ",
"                                    ",
"                                    ",
"                                    ",
"                                    ",
"                                    ",
"                                    ",
"                                    ",
"                                    ",
"                                    ",
"                                    "
};
