/* XPM */
static const char *Key7[] = {
/* columns rows colors chars-per-pixel */
"36 36 6 1 ",
"  c #7A6D16",
". c #916644",
"X c #968618",
"o c #C4B018",
"O c #E6D55A",
"+ c #F5E893",
/* pixels */
"....................................",
"....................................",
"....................................",
"....................................",
"....................................",
"....................................",
"....................................",
"....................................",
"....................................",
"....................................",
".......... + .......................",
"........  OO+  .....................",
"....... oooo+OO ....................",
"...... oooooo+oO ...................",
"...... oooooo+oo ...................",
"..... ooooXXXo+oO              .....",
"..... oooX   X+ooOOOOOOOOOOOOOO ....",
"..... XooX   Xo+ooooooooooooooo ....",
"..... XoooXXXoo+o      ooooooo .....",
"...... ooooooooo+..... o o o o .....",
"...... Xoooooooo+..... o o o o .....",
"....... XXoooXX ...... X X X X .....",
"........  XXX  ........ . . . ......",
"..........   .......................",
"....................................",
"....................................",
"....................................",
"....................................",
"....................................",
"....................................",
"....................................",
"....................................",
"....................................",
"....................................",
"....................................",
"...................................."
};
