/* XPM */
static const char *Key9[] = {
/* columns rows colors chars-per-pixel */
"36 36 6 1 ",
"  c #7A6D16",
". c #916644",
"X c #968618",
"o c #C4B018",
"O c #E6D55A",
"+ c #F5E893",
/* pixels */
"....................................",
"....................................",
"....................................",
"....................................",
"....................................",
"....................................",
"....................................",
"....................................",
"....................................",
"....................................",
"..........   .......................",
"........  OOO  .....................",
"....... oooooOO ....................",
"...... +oooooooO ...................",
"...... +oooooooo ...................",
"..... oo+oXXXoooO              .....",
"..... oo+X   XoooOOOOOOOOOOOOOO ....",
"..... Xoo+   Xooooooooooooooooo ....",
"..... Xoo+XXXoooo      ooooooo .....",
"...... ooo+ooooo ..... o o o o .....",
"...... Xoo+ooooo ..... o o o o .....",
"....... XXo+oXX ...... X X X X .....",
"........  X+X  ........ . . . ......",
"..........  +.......................",
"....................................",
"....................................",
"....................................",
"....................................",
"....................................",
"....................................",
"....................................",
"....................................",
"....................................",
"....................................",
"....................................",
"...................................."
};
