/* XPM */
static const char *Key11[] = {
/* columns rows colors chars-per-pixel */
"36 36 5 1 ",
"  c #7A6D16",
". c #916644",
"X c #968618",
"o c #C4B018",
"O c #E6D55A",
/* pixels */
"....................................",
"....................................",
"....................................",
"....................................",
"....................................",
"....................................",
"....................................",
"....................................",
"....................................",
"....................................",
"..........   .......................",
"........  OOO  .....................",
"....... oooooOO ....................",
"...... ooooooooO ...................",
"...... ooooooooo ...................",
"..... ooooXXXoooO              .....",
"..... oooX   XoooOOOOOOOOOOOOOO ....",
"..... XooX   Xooooooooooooooooo ....",
"..... XoooXXXoooo      ooooooo .....",
"...... ooooooooo ..... o o o o .....",
"...... Xoooooooo ..... o o o o .....",
"....... XXoooXX ...... X X X X .....",
"........  XXX  ........ . . . ......",
"..........   .......................",
"....................................",
"....................................",
"....................................",
"....................................",
"....................................",
"....................................",
"....................................",
"....................................",
"....................................",
"....................................",
"....................................",
"...................................."
};
