/* XPM */
static const char *Key8[] = {
/* columns rows colors chars-per-pixel */
"36 36 6 1 ",
"  c #7A6D16",
". c #916644",
"X c #968618",
"o c #C4B018",
"O c #E6D55A",
"+ c #F5E893",
/* pixels */
"....................................",
"....................................",
"....................................",
"....................................",
"....................................",
"....................................",
"....................................",
"....................................",
"....................................",
"....................................",
"..........   .......................",
"........ +OOO  .....................",
"....... o+oooOO ....................",
"...... ooo+ooooO ...................",
"...... ooo+ooooo ...................",
"..... ooooX+XoooO              .....",
"..... oooX + XoooOOOOOOOOOOOOOO ....",
"..... XooX  +Xooooooooooooooooo ....",
"..... XoooXX+oooo      ooooooo .....",
"...... oooooo+oo ..... o o o o .....",
"...... Xooooo+oo ..... o o o o .....",
"....... XXoooX+ ...... X X X X .....",
"........  XXX +........ . . . ......",
"..........   .......................",
"....................................",
"....................................",
"....................................",
"....................................",
"....................................",
"....................................",
"....................................",
"....................................",
"....................................",
"....................................",
"....................................",
"...................................."
};
