/* XPM */
static const char *Wall[] = {
/* columns rows colors chars-per-pixel */
"36 36 8 1 ",
"  c #292421",
". c #38322F",
"X c #473F3B",
"o c #464646",
"O c gray36",
"+ c #61554F",
"@ c gray44",
"# c gray51",
/* pixels */
"##@@ ######@@ ######@@ ######@@ ####",
"#@@@.#####@@@.#####@@@.#####@@@.####",
"@@@OX@@@@@@@OX@@@@@@@OX@@@@@@@OX@@@@",
"@@OO+@@@@@@OO+@@@@@@OO+@@@@@@OO+@@@@",
"OOOOXOOOOOOOOXOOOOOOOOXOOOOOOOOXOOOO",
"OOOo.OOOOOOOo.OOOOOOOo.OOOOOOOo.OOOO",
"oooo oooooooo oooooooo oooooooo oooo",
"oooo oooooooo oooooooo oooooooo oooo",
"                                    ",
" ######@@ ######@@ ######@@ ######@@",
".#####@@@.#####@@@.#####@@@.#####@@@",
"X@@@@@@@OX@@@@@@@OX@@@@@@@OX@@@@@@@O",
"+@@@@@@OO+@@@@@@OO+@@@@@@OO+@@@@@@OO",
"XOOOOOOOOXOOOOOOOOXOOOOOOOOXOOOOOOOO",
".OOOOOOOo.OOOOOOOo.OOOOOOOo.OOOOOOOo",
" oooooooo oooooooo oooooooo oooooooo",
" oooooooo oooooooo oooooooo oooooooo",
"                                    ",
"###@@ ######@@ ######@@ ######@@ ###",
"##@@@.#####@@@.#####@@@.#####@@@.###",
"@@@@OX@@@@@@@OX@@@@@@@OX@@@@@@@OX@@@",
"@@@OO+@@@@@@OO+@@@@@@OO+@@@@@@OO+@@@",
"OOOOOXOOOOOOOOXOOOOOOOOXOOOOOOOOXOOO",
"OOOOo.OOOOOOOo.OOOOOOOo.OOOOOOOo.OOO",
"ooooo oooooooo oooooooo oooooooo ooo",
"ooooo oooooooo oooooooo oooooooo ooo",
"                                    ",
"@ ######@@ ######@@ ######@@ ######@",
"@.#####@@@.#####@@@.#####@@@.#####@@",
"OX@@@@@@@OX@@@@@@@OX@@@@@@@OX@@@@@@@",
"O+@@@@@@OO+@@@@@@OO+@@@@@@OO+@@@@@@O",
"OXOOOOOOOOXOOOOOOOOXOOOOOOOOXOOOOOOO",
"o.OOOOOOOo.OOOOOOOo.OOOOOOOo.OOOOOOO",
"o oooooooo oooooooo oooooooo ooooooo",
"o oooooooo oooooooo oooooooo ooooooo",
"                                    "
};
