/* XPM */
static const char *KnigtMovingBack2[] = {
/* columns rows colors chars-per-pixel */
"36 36 11 1 ",
"  c black",
". c #3D103D",
"X c #571557",
"o c #3A4B61",
"O c #3E5D80",
"+ c #546D8E",
"@ c #8F328F",
"# c #D651D6",
"$ c #709AD1",
"% c #BDB9BD",
"& c None",
/* pixels */
"&&&&&&&&&&&&&&&&&&&&&&&&&&&&&&&&&&&&",
"&&&&&&&   &&&&&&&&&&&&&&&&   &&&&&&&",
"&&&&&& @# &&&&        &&&& #@ &&&&&&",
"&&&&& @# &&&  ++++++++  &&& #@ &&&&&",
"&&&& @@ &&& ++++++++++++ &&& @@ &&&&",
"&&&& @@ &&& +++++++++$$+ &&& @@ &&&&",
"&&&& X@@   ++++++++++$$++   @@X &&&&",
"&&&& XXXX. $+++++++++++++ .XXXX &&&&",
"&&&&& XX.. $+++++++++++++ ..XX &&&&&",
"&&&&&  ... $+++++++++++++ ...  &&&&&",
"&&&&&&&    $+++++++++++++    &&&&&&&",
"&&&&&&&&&& $+++++++++++++ &&&&&&&&&&",
"&&&&&&&&&& $+++++++++++++ &&&&&&&&&&",
"&&&&&&&&&& $+++++++++++++ &&&&&&&&&&",
"&&&&&&&&&& $+++++++++++++ &&&&&&&&&&",
"&&&&&&&&&& $+++++++++++++ &&&&&&&&&&",
"&&&&&&&&&& o++++++++++++o &&&&&&&&&&",
"&&&&&&&&&& $oo++++++++oo+ &&&&&&&&&&",
"&&&&&&&&      oooooooo      &&&&&&&&",
"&&&&&&&& $$$$O        O$$$$ &&&&&&&&",
"&&&&&&&& ++++ Oo    oO ++++ &&&&&&&&",
"&&&&&&&&& oo +++oooo+++ oo &&&&&&&&&",
"&&&&&&&&&    ++++++++++    &&&&&&&&&",
"&&&&&&&&& oo ++++++++++ oo &&&&&&&&&",
"&&&&&&&   ++  ++++++++  ++ &&&&&&&&&",
"&&&&&&& @ ++  ++++++++  +  &&&&&&&&&",
"&&&&&&& @. +  o++++++o   % &&&&&&&&&",
"&&&&&&& @.X    oooooo   & &&&&&&&&&&",
"&&&&&&& .XX & O      O &&&&&&&&&&&&&",
"&&&&&&& .. && O+    +O &&&&&&&&&&&&&",
"&&&&&&& .X &&          &&&&&&&&&&&&&",
"&&&&&&& XX &&&        &&&&&&&&&&&&&&",
"&&&&&&&&  &&&& O+  +O &&&&&&&&&&&&&&",
"&&&&&&&&&&&&&&&&&&    &&&&&&&&&&&&&&",
"&&&&&&&&&&&&&&&&&& +O &&&&&&&&&&&&&&",
"&&&&&&&&&&&&&&&&&&&&&&&&&&&&&&&&&&&&"
};
