/* XPM */
static const char *Key4[] = {
/* columns rows colors chars-per-pixel */
"36 36 6 1 ",
"  c #7A6D16",
". c #916644",
"X c #968618",
"o c #C4B018",
"O c #E6D55A",
"+ c #F5E893",
/* pixels */
"....................................",
"....................................",
"....................................",
"....................................",
"....................................",
"....................................",
"....................................",
"....................................",
"....................................",
"....................................",
"..........   .......................",
"........  OOO  .....................",
"....... oooooOO ....................",
"...... ooooooooO ...................",
"...... ooooooooo ...................",
"..... ooooXXXoooO      +       .....",
"..... oooX   XoooOOOOOO+OOOOOOO ....",
"..... XooX   Xoooooooooo+oooooo ....",
"..... XoooXXXoooo      o+ooooo .....",
"...... ooooooooo ..... o + o o .....",
"...... Xoooooooo ..... o + o o .....",
"....... XXoooXX ...... X X+X X .....",
"........  XXX  ........ . . . ......",
"..........   .......................",
"....................................",
"....................................",
"....................................",
"....................................",
"....................................",
"....................................",
"....................................",
"....................................",
"....................................",
"....................................",
"....................................",
"...................................."
};
